<svg width="60" height="60" viewBox="0 0 60 60" fill="none" xmlns="http://www.w3.org/2000/svg">
<g clip-path="url(#clip0_711_83)">
<path fill-rule="evenodd" clip-rule="evenodd" d="M0 29.9571C0.0113611 22.0044 3.18 14.3815 8.80949 8.76408C14.439 3.14664 22.0686 -0.0056729 30.0214 7.6641e-06C37.9742 0.00568822 45.5993 3.16889 51.2207 8.79437C56.8422 14.4198 60 22.0472 60 30C60 37.9528 56.8422 45.5801 51.2207 51.2056C45.5993 56.8311 37.9742 59.9943 30.0214 60C22.0686 60.0057 14.439 56.8534 8.80949 51.2359C3.18 45.6185 0.0113611 37.9956 0 30.0429V29.9571Z" fill="#FF5A5A"/>
<path fill-rule="evenodd" clip-rule="evenodd" d="M14.5713 25.2428C14.5816 23.9963 15.0403 22.805 15.8471 21.9295C16.6539 21.0541 17.7431 20.5658 18.8763 20.5715C20.0096 20.5771 21.0946 21.0763 21.8941 21.9598C22.6937 22.8433 23.1425 24.0391 23.1425 25.2857C23.1425 26.5323 22.6937 27.7281 21.8941 28.6116C21.0946 29.4951 20.0096 29.9943 18.8763 29.9999C17.7431 30.0056 16.6539 29.5173 15.8471 28.6418C15.0403 27.7664 14.5816 26.5751 14.5713 25.3286V25.2428Z" fill="#A70408"/>
<path d="M15 25.2464C15.0093 24.1131 15.4221 23.0301 16.1482 22.2342C16.8743 21.4384 17.8546 20.9945 18.8745 20.9996C19.8944 21.0048 20.871 21.4586 21.5906 22.2617C22.3102 23.0649 22.7141 24.1521 22.7141 25.2853C22.7141 26.4186 22.3102 27.5058 21.5906 28.3089C20.871 29.1121 19.8944 29.5659 18.8745 29.571C17.8546 29.5762 16.8743 29.1323 16.1482 28.3364C15.4221 27.5405 15.0093 26.4575 15 25.3243V25.2464Z" stroke="#A70408" stroke-width="0.904539" stroke-linecap="round" stroke-linejoin="round"/>
<path fill-rule="evenodd" clip-rule="evenodd" d="M37.7144 25.2428C37.7236 23.9963 38.1365 22.805 38.8626 21.9295C39.5887 21.0541 40.5689 20.5658 41.5889 20.5715C42.6088 20.5771 43.5854 21.0763 44.3049 21.9598C45.0245 22.8433 45.4285 24.0391 45.4285 25.2857C45.4285 26.5323 45.0245 27.7281 44.3049 28.6116C43.5854 29.4951 42.6088 29.9943 41.5889 29.9999C40.5689 30.0056 39.5887 29.5173 38.8626 28.6418C38.1365 27.7664 37.7236 26.5751 37.7144 25.3286V25.2428Z" fill="#A70408"/>
<path d="M38.1431 25.2464C38.1513 24.1131 38.5183 23.0301 39.1637 22.2342C39.8091 21.4384 40.6805 20.9945 41.5871 20.9996C42.4937 21.0048 43.3618 21.4586 44.0014 22.2617C44.641 23.0649 45.0001 24.1521 45.0001 25.2853C45.0001 26.4186 44.641 27.5058 44.0014 28.3089C43.3618 29.1121 42.4937 29.5659 41.5871 29.571C40.6805 29.5762 39.8091 29.1323 39.1637 28.3364C38.5183 27.5405 38.1513 26.4575 38.1431 25.3243V25.2464Z" stroke="#A70408" stroke-width="0.898938" stroke-linecap="round" stroke-linejoin="round"/>
<path d="M45.0014 46.5231C45.0014 46.5231 38.3268 38.6691 31.1414 38.6691C23.9559 38.6691 16.2588 46.5231 16.2588 46.5231" stroke="#A70408" stroke-width="5" stroke-linecap="round" stroke-linejoin="round"/>
</g>
<defs>
<clipPath id="clip0_711_83">
<rect width="60" height="60" fill="white"/>
</clipPath>
</defs>
</svg>
