<svg width="60" height="60" viewBox="0 0 60 60" fill="none" xmlns="http://www.w3.org/2000/svg">
<g clip-path="url(#clip0_711_73)">
<path fill-rule="evenodd" clip-rule="evenodd" d="M0 29.5352C0.0113611 21.6944 3.18003 14.179 8.80951 8.64065C14.439 3.10233 22.0686 -0.005593 30.0214 7.55612e-06C37.9742 0.00560811 45.5993 3.12427 51.2207 8.67052C56.8422 14.2168 60 21.7367 60 29.5775C60 37.4182 56.8422 44.9382 51.2207 50.4844C45.5993 56.0306 37.9742 59.1493 30.0214 59.1549C22.0686 59.1605 14.439 56.0526 8.80951 50.5143C3.18003 44.9759 0.0113611 37.4605 0 29.6197V29.5352Z" fill="#69BA36"/>
<path fill-rule="evenodd" clip-rule="evenodd" d="M14.3662 25.3099C14.3751 24.1929 14.7375 23.1259 15.3741 22.342C16.0107 21.5582 16.8697 21.1212 17.7632 21.1268C18.6568 21.1324 19.5122 21.58 20.1425 22.3718C20.7728 23.1636 21.1266 24.2352 21.1266 25.3521C21.1266 26.4691 20.7728 27.5406 20.1425 28.3324C19.5122 29.1242 18.6568 29.5718 17.7632 29.5774C16.8697 29.583 16.0107 29.1461 15.3741 28.3622C14.7375 27.5783 14.3751 26.5113 14.3662 25.3944V25.3099Z" fill="#2B6706"/>
<path fill-rule="evenodd" clip-rule="evenodd" d="M38.873 25.3099C38.8842 24.1929 39.3372 23.1259 40.1329 22.342C40.9286 21.5582 42.0024 21.1212 43.1193 21.1268C44.2363 21.1324 45.3056 21.58 46.0934 22.3718C46.8813 23.1636 47.3235 24.2352 47.3235 25.3521C47.3235 26.4691 46.8813 27.5406 46.0934 28.3324C45.3056 29.1242 44.2363 29.5718 43.1193 29.5774C42.0024 29.583 40.9286 29.1461 40.1329 28.3622C39.3372 27.5783 38.8842 26.5113 38.873 25.3944V25.3099Z" fill="#2B6706"/>
<path fill-rule="evenodd" clip-rule="evenodd" d="M16.4375 39.9481C16.4375 39.9481 22.9462 47.7819 29.9536 47.7819C36.9609 47.7819 44.4668 39.9481 44.4668 39.9481" fill="#2B6706"/>
<path d="M16.4375 39.9481C16.4375 39.9481 22.9462 47.7819 29.9536 47.7819C36.9609 47.7819 44.4668 39.9481 44.4668 39.9481" stroke="#2B6706" stroke-width="5" stroke-linecap="round" stroke-linejoin="round"/>
<path d="M44.4887 39.3659H16.3647" stroke="#2B6706" stroke-width="5" stroke-linecap="round" stroke-linejoin="round"/>
</g>
<defs>
<clipPath id="clip0_711_73">
<rect width="60" height="59.1549" fill="white"/>
</clipPath>
</defs>
</svg>
