<svg width="60" height="60" viewBox="0 0 60 60" fill="none" xmlns="http://www.w3.org/2000/svg">
<g clip-path="url(#clip0_711_104)">
<path fill-rule="evenodd" clip-rule="evenodd" d="M0 29.5286C0.0115257 21.6895 3.18029 14.1756 8.80983 8.63856C14.4394 3.10149 22.069 -0.00567275 30.0217 7.77515e-06C37.9744 0.0056883 45.5995 3.12375 51.2209 8.66885C56.8422 14.214 60 21.7323 60 29.5714C60 37.4106 56.8422 44.9289 51.2209 50.474C45.5995 56.0191 37.9744 59.1372 30.0217 59.1428C22.069 59.1485 14.4394 56.0414 8.80983 50.5043C3.18029 44.9672 0.0115257 37.4534 0 29.6143V29.5286Z" fill="#FFCF7A"/>
<path d="M18.3345 40.3903H44.5665" stroke="#AF7510" stroke-width="5" stroke-linecap="round" stroke-linejoin="round"/>
<path fill-rule="evenodd" clip-rule="evenodd" d="M13.7144 26.1C13.7247 24.8534 14.1834 23.6621 14.9902 22.7867C15.7969 21.9112 16.8861 21.4229 18.0194 21.4286C19.1526 21.4342 20.2377 21.9334 21.0372 22.8169C21.8367 23.7004 22.2856 24.8962 22.2856 26.1428C22.2856 27.3894 21.8367 28.5853 21.0372 29.4687C20.2377 30.3522 19.1526 30.8514 18.0194 30.8571C16.8861 30.8627 15.7969 30.3744 14.9902 29.499C14.1834 28.6235 13.7247 27.4322 13.7144 26.1857V26.1Z" fill="#AF7510"/>
<path fill-rule="evenodd" clip-rule="evenodd" d="M39.4287 26.1C39.439 24.8534 39.8977 23.6621 40.7045 22.7867C41.5113 21.9112 42.6005 21.4229 43.7337 21.4286C44.867 21.4342 45.9521 21.9334 46.7516 22.8169C47.5511 23.7004 48 24.8962 48 26.1428C48 27.3894 47.5511 28.5853 46.7516 29.4687C45.9521 30.3522 44.867 30.8514 43.7337 30.8571C42.6005 30.8627 41.5113 30.3744 40.7045 29.499C39.8977 28.6235 39.439 27.4322 39.4287 26.1857V26.1Z" fill="#AF7510"/>
</g>
<defs>
<clipPath id="clip0_711_104">
<rect width="60" height="59.1429" fill="white"/>
</clipPath>
</defs>
</svg>
