<svg width="61" height="60" viewBox="0 0 61 60" fill="none" xmlns="http://www.w3.org/2000/svg">
<g clip-path="url(#clip0_711_22)">
<path fill-rule="evenodd" clip-rule="evenodd" d="M0.5 29.9407C0.51371 22.1234 3.68401 14.6314 9.3142 9.11092C14.9444 3.59045 22.5738 0.493272 30.5258 0.500011C38.4778 0.50675 46.1018 3.61685 51.7223 9.14686C57.3428 14.6769 60.5 22.1743 60.5 29.9915C60.5 37.8088 57.3428 45.3062 51.7223 50.8362C46.1018 56.3662 38.4778 59.4763 30.5258 59.483C22.5738 59.4898 14.9444 56.3926 9.3142 50.8721C3.68401 45.3517 0.51371 37.8596 0.5 30.0424V29.9407Z" fill="#A9ACC7"/>
<path fill-rule="evenodd" clip-rule="evenodd" d="M14.7373 25.8729C14.7491 24.7985 15.1323 23.7731 15.8033 23.0206C16.4743 22.268 17.3785 21.8493 18.3186 21.856C19.2587 21.8628 20.1584 22.2943 20.8211 23.0564C21.4838 23.8185 21.8557 24.8493 21.8557 25.9238C21.8557 26.9982 21.4838 28.029 20.8211 28.7911C20.1584 29.5532 19.2587 29.9848 18.3186 29.9915C17.3785 29.9982 16.4743 29.5796 15.8033 28.827C15.1323 28.0744 14.7491 27.049 14.7373 25.9746V25.8729Z" fill="black"/>
<path d="M15.2456 25.8795C15.2557 24.9395 15.5841 24.0422 16.1593 23.3837C16.7344 22.7252 17.5095 22.3589 18.3153 22.3648C19.1211 22.3706 19.8922 22.7482 20.4602 23.4151C21.0282 24.0819 21.347 24.9839 21.347 25.924C21.347 26.8641 21.0282 27.7661 20.4602 28.433C19.8922 29.0998 19.1211 29.4774 18.3153 29.4833C17.5095 29.4891 16.7344 29.1228 16.1593 28.4643C15.5841 27.8058 15.2557 26.9086 15.2456 25.9685V25.8795Z" stroke="black" stroke-width="0.866024" stroke-linecap="round" stroke-linejoin="round"/>
<path fill-rule="evenodd" clip-rule="evenodd" d="M39.144 25.8729C39.1575 24.7985 39.5954 23.7731 40.3623 23.0206C41.1291 22.268 42.1626 21.8493 43.237 21.856C44.3114 21.8628 45.3395 22.2943 46.0969 23.0564C46.8543 23.8185 47.2793 24.8493 47.2793 25.9238C47.2793 26.9982 46.8543 28.029 46.0969 28.7911C45.3395 29.5532 44.3114 29.9848 43.237 29.9915C42.1626 29.9982 41.1291 29.5796 40.3623 28.827C39.5954 28.0744 39.1575 27.049 39.144 25.9746V25.8729Z" fill="black"/>
<path d="M39.6523 25.879C39.6642 24.939 40.0475 24.0418 40.7185 23.3833C41.3895 22.7249 42.2937 22.3586 43.2338 22.3645C44.1739 22.3704 45.0734 22.748 45.7361 23.4149C46.3988 24.0817 46.7707 24.9836 46.7707 25.9238C46.7707 26.8639 46.3988 27.7658 45.7361 28.4327C45.0734 29.0995 44.1739 29.4771 43.2338 29.483C42.2937 29.4889 41.3895 29.1227 40.7185 28.4642C40.0475 27.8057 39.6642 26.9085 39.6523 25.9685V25.879Z" stroke="black" stroke-width="0.875" stroke-linecap="round" stroke-linejoin="round"/>
<path fill-rule="evenodd" clip-rule="evenodd" d="M16.8442 40.2567C16.8442 40.2567 23.3161 48.0465 30.2842 48.0465C37.2514 48.0465 44.7148 40.2567 44.7148 40.2567" fill="black"/>
<path d="M16.8442 40.2567C16.8442 40.2567 23.3161 48.0465 30.2842 48.0465C37.2514 48.0465 44.7148 40.2567 44.7148 40.2567" stroke="black" stroke-width="5" stroke-linecap="round" stroke-linejoin="round"/>
<path d="M44.7371 39.678H16.771" stroke="black" stroke-width="5" stroke-linecap="round" stroke-linejoin="round"/>
</g>
<defs>
<clipPath id="clip0_711_22">
<rect width="60" height="58.9831" fill="white" transform="translate(0.5 0.5)"/>
</clipPath>
</defs>
</svg>
