<svg width="61" height="61" viewBox="0 0 61 61" fill="none" xmlns="http://www.w3.org/2000/svg">
<g clip-path="url(#clip0_711_62)">
<path fill-rule="evenodd" clip-rule="evenodd" d="M0.5 30.4483C0.51371 22.4963 3.684 14.875 9.31419 9.25938C14.9444 3.64373 22.5738 0.493156 30.5258 0.500011C38.4778 0.506866 46.1018 3.67059 51.7223 9.29594C57.3428 14.9213 60.4999 22.548 60.4999 30.5C60.4999 38.452 57.3428 46.0787 51.7223 51.704C46.1018 57.3294 38.4778 60.4931 30.5258 60.5C22.5738 60.5068 14.9444 57.3563 9.31419 51.7406C3.684 46.125 0.51371 38.5037 0.5 30.5517V30.4483Z" fill="#A9ACC7"/>
<path fill-rule="evenodd" clip-rule="evenodd" d="M14.9829 25.7931C14.9951 24.563 15.4395 23.3884 16.2191 22.5258C16.9987 21.6632 18.0501 21.1829 19.1436 21.1897C20.237 21.1966 21.2836 21.69 22.0547 22.5623C22.8257 23.4345 23.2585 24.6147 23.2585 25.8448C23.2585 27.075 22.8257 28.2551 22.0547 29.1274C21.2836 29.9996 20.237 30.4931 19.1436 30.4999C18.0501 30.5068 16.9987 30.0264 16.2191 29.1639C15.4395 28.3013 14.9951 27.1266 14.9829 25.8966V25.7931Z" fill="black"/>
<path d="M15.5 25.7984C15.5106 24.705 15.8995 23.6609 16.5817 22.8941C17.2638 22.1274 18.1838 21.7004 19.1406 21.7065C20.0973 21.7126 21.0131 22.1512 21.6878 22.9266C22.3624 23.7019 22.7412 24.7509 22.7412 25.8444C22.7412 26.9379 22.3624 27.9869 21.6878 28.7622C21.0131 29.5376 20.0973 29.9762 19.1406 29.9823C18.1838 29.9883 17.2638 29.5614 16.5817 28.7946C15.8995 28.0279 15.5106 26.9838 15.5 25.8904V25.7984Z" stroke="#070707" stroke-width="0.881918" stroke-linecap="round" stroke-linejoin="round"/>
<path fill-rule="evenodd" clip-rule="evenodd" d="M37.7417 25.7931C37.7538 24.563 38.1983 23.3884 38.9779 22.5258C39.7575 21.6632 40.8089 21.1829 41.9024 21.1897C42.9958 21.1966 44.0424 21.69 44.8135 22.5623C45.5845 23.4345 46.0173 24.6147 46.0173 25.8448C46.0173 27.075 45.5845 28.2551 44.8135 29.1274C44.0424 29.9996 42.9958 30.4931 41.9024 30.4999C40.8089 30.5068 39.7575 30.0264 38.9779 29.1639C38.1983 28.3013 37.7538 27.1266 37.7417 25.8966V25.7931Z" fill="black"/>
<path d="M38.2588 25.7984C38.2694 24.705 38.6583 23.6609 39.3405 22.8941C40.0226 22.1274 40.9426 21.7004 41.8994 21.7065C42.8561 21.7126 43.7719 22.1512 44.4466 22.9266C45.1212 23.7019 45.4999 24.7509 45.4999 25.8444C45.4999 26.9379 45.1212 27.9869 44.4466 28.7622C43.7719 29.5376 42.8561 29.9762 41.8994 29.9823C40.9426 29.9883 40.0226 29.5614 39.3405 28.7946C38.6583 28.0279 38.2694 26.9838 38.2588 25.8904V25.7984Z" stroke="#070707" stroke-width="0.881918" stroke-linecap="round" stroke-linejoin="round"/>
<path d="M45.1981 46.9048C45.1981 46.9048 38.5422 39.0717 31.3774 39.0717C24.2105 39.0717 16.5356 46.9048 16.5356 46.9048" stroke="#070707" stroke-width="5" stroke-linecap="round" stroke-linejoin="round"/>
</g>
<defs>
<clipPath id="clip0_711_62">
<rect width="60" height="60" fill="white" transform="translate(0.5 0.5)"/>
</clipPath>
</defs>
</svg>
