<svg width="60" height="60" viewBox="0 0 60 60" fill="none" xmlns="http://www.w3.org/2000/svg">
<g clip-path="url(#clip0_711_110)">
<path fill-rule="evenodd" clip-rule="evenodd" d="M0 29.5286C0.0115257 21.6895 3.18029 14.1756 8.80983 8.63856C14.4394 3.10149 22.069 -0.00567275 30.0217 7.77515e-06C37.9744 0.0056883 45.5995 3.12375 51.2209 8.66885C56.8422 14.214 60 21.7323 60 29.5714C60 37.4106 56.8422 44.9289 51.2209 50.474C45.5995 56.0191 37.9744 59.1372 30.0217 59.1428C22.069 59.1485 14.4394 56.0414 8.80983 50.5043C3.18029 44.9672 0.0115257 37.4534 0 29.6143V29.5286Z" fill="#95C651"/>
<path fill-rule="evenodd" clip-rule="evenodd" d="M14.5713 26.1C14.5816 24.8534 15.0403 23.6621 15.8471 22.7867C16.6539 21.9112 17.7431 21.4229 18.8763 21.4286C20.0096 21.4342 21.0946 21.9334 21.8941 22.8169C22.6937 23.7004 23.1425 24.8962 23.1425 26.1428C23.1425 27.3894 22.6937 28.5853 21.8941 29.4687C21.0946 30.3522 20.0096 30.8514 18.8763 30.8571C17.7431 30.8627 16.6539 30.3744 15.8471 29.499C15.0403 28.6235 14.5816 27.4322 14.5713 26.1857V26.1Z" fill="#487608"/>
<path fill-rule="evenodd" clip-rule="evenodd" d="M39.4287 26.1C39.439 24.8534 39.8977 23.6621 40.7045 22.7867C41.5113 21.9112 42.6005 21.4229 43.7337 21.4286C44.867 21.4342 45.9521 21.9334 46.7516 22.8169C47.5511 23.7004 48 24.8962 48 26.1428C48 27.3894 47.5511 28.5853 46.7516 29.4687C45.9521 30.3522 44.867 30.8514 43.7337 30.8571C42.6005 30.8627 41.5113 30.3744 40.7045 29.499C39.8977 28.6235 39.439 27.4322 39.4287 26.1857V26.1Z" fill="#487608"/>
<path d="M17.7944 38.8834C17.7944 38.8834 23.9204 44.8594 30.5162 44.8594C37.111 44.8594 44.1756 38.8834 44.1756 38.8834" stroke="#487608" stroke-width="5" stroke-linecap="round" stroke-linejoin="round"/>
</g>
<defs>
<clipPath id="clip0_711_110">
<rect width="60" height="59.1429" fill="white"/>
</clipPath>
</defs>
</svg>
