<svg width="61" height="60" viewBox="0 0 61 60" fill="none" xmlns="http://www.w3.org/2000/svg">
<g clip-path="url(#clip0_711_56)">
<path fill-rule="evenodd" clip-rule="evenodd" d="M0.5 29.931C0.513951 22.1162 3.6844 14.6265 9.31467 9.10788C14.9449 3.58923 22.5743 0.493156 30.5263 0.500011C38.4782 0.506866 46.1021 3.61611 51.7225 9.14445C57.3429 14.6728 60.4999 22.1679 60.4999 29.9828C60.4999 37.7976 57.3429 45.2927 51.7225 50.8211C46.1021 56.3494 38.4782 59.4586 30.5263 59.4655C22.5743 59.4724 14.9449 56.3763 9.31467 50.8576C3.6844 45.339 0.513951 37.8493 0.5 30.0345V29.931Z" fill="#A9ACC7"/>
<path d="M18.6045 40.9586H44.7645" stroke="black" stroke-width="5" stroke-linecap="round" stroke-linejoin="round"/>
<path fill-rule="evenodd" clip-rule="evenodd" d="M13.9482 26.8276C13.9604 25.5975 14.4048 24.4228 15.1844 23.5603C15.964 22.6977 17.0155 22.2174 18.1089 22.2242C19.2024 22.231 20.249 22.7245 21.02 23.5967C21.791 24.469 22.2239 25.6491 22.2239 26.8793C22.2239 28.1094 21.791 29.2896 21.02 30.1618C20.249 31.0341 19.2024 31.5276 18.1089 31.5344C17.0155 31.5412 15.964 31.0609 15.1844 30.1983C14.4048 29.3357 13.9604 28.1611 13.9482 26.931V26.8276Z" fill="black"/>
<path fill-rule="evenodd" clip-rule="evenodd" d="M39.8105 26.8276C39.8227 25.5975 40.2671 24.4228 41.0467 23.5603C41.8263 22.6977 42.8778 22.2174 43.9712 22.2242C45.0647 22.231 46.1113 22.7245 46.8823 23.5967C47.6533 24.469 48.0862 25.6491 48.0862 26.8793C48.0862 28.1094 47.6533 29.2896 46.8823 30.1618C46.1113 31.0341 45.0647 31.5276 43.9712 31.5344C42.8778 31.5412 41.8263 31.0609 41.0467 30.1983C40.2671 29.3357 39.8227 28.1611 39.8105 26.931V26.8276Z" fill="black"/>
</g>
<defs>
<clipPath id="clip0_711_56">
<rect width="60" height="58.9655" fill="white" transform="translate(0.5 0.5)"/>
</clipPath>
</defs>
</svg>
