<svg width="61" height="60" viewBox="0 0 61 60" fill="none" xmlns="http://www.w3.org/2000/svg">
<g clip-path="url(#clip0_711_46)">
<path fill-rule="evenodd" clip-rule="evenodd" d="M0.5 29.931C0.513951 22.1162 3.6844 14.6265 9.31467 9.10788C14.9449 3.58923 22.5743 0.493156 30.5263 0.500011C38.4782 0.506866 46.1021 3.61611 51.7225 9.14445C57.3429 14.6728 60.5 22.1679 60.5 29.9828C60.5 37.7976 57.3429 45.2927 51.7225 50.8211C46.1021 56.3494 38.4782 59.4586 30.5263 59.4655C22.5743 59.4724 14.9449 56.3763 9.31467 50.8576C3.6844 45.339 0.513951 37.8493 0.5 30.0345V29.931Z" fill="#A9ACC7"/>
<path fill-rule="evenodd" clip-rule="evenodd" d="M14.9829 26.8276C14.9951 25.5975 15.4395 24.4228 16.2191 23.5603C16.9987 22.6977 18.0501 22.2174 19.1436 22.2242C20.237 22.231 21.2836 22.7245 22.0547 23.5967C22.8257 24.469 23.2585 25.6491 23.2585 26.8793C23.2585 28.1094 22.8257 29.2896 22.0547 30.1618C21.2836 31.0341 20.237 31.5276 19.1436 31.5344C18.0501 31.5412 16.9987 31.0609 16.2191 30.1983C15.4395 29.3357 14.9951 28.1611 14.9829 26.931V26.8276Z" fill="black"/>
<path d="M15.5 26.8329C15.5106 25.7395 15.8995 24.6953 16.5817 23.9286C17.2638 23.1619 18.1838 22.7349 19.1406 22.741C20.0973 22.747 21.0131 23.1857 21.6878 23.961C22.3624 24.7364 22.7412 25.7854 22.7412 26.8788C22.7412 27.9723 22.3624 29.0213 21.6878 29.7967C21.0131 30.572 20.0973 31.0106 19.1406 31.0167C18.1838 31.0228 17.2638 30.5958 16.5817 29.8291C15.8995 29.0624 15.5106 28.0182 15.5 26.9248V26.8329Z" stroke="black" stroke-width="0.881918" stroke-linecap="round" stroke-linejoin="round"/>
<path fill-rule="evenodd" clip-rule="evenodd" d="M39.8105 26.8276C39.8227 25.5975 40.2671 24.4228 41.0467 23.5603C41.8263 22.6977 42.8778 22.2174 43.9712 22.2242C45.0647 22.231 46.1113 22.7245 46.8823 23.5967C47.6533 24.469 48.0862 25.6491 48.0862 26.8793C48.0862 28.1094 47.6533 29.2896 46.8823 30.1618C46.1113 31.0341 45.0647 31.5276 43.9712 31.5344C42.8778 31.5412 41.8263 31.0609 41.0467 30.1983C40.2671 29.3357 39.8227 28.1611 39.8105 26.931V26.8276Z" fill="black"/>
<path d="M40.3276 26.8329C40.3383 25.7395 40.7272 24.6953 41.4093 23.9286C42.0915 23.1619 43.0115 22.7349 43.9682 22.741C44.925 22.747 45.8408 23.1857 46.5154 23.961C47.1901 24.7364 47.5688 25.7854 47.5688 26.8788C47.5688 27.9723 47.1901 29.0213 46.5154 29.7967C45.8408 30.572 44.925 31.0106 43.9682 31.0167C43.0115 31.0228 42.0915 30.5958 41.4093 29.8291C40.7272 29.0624 40.3383 28.0182 40.3276 26.9248V26.8329Z" stroke="black" stroke-width="0.881918" stroke-linecap="round" stroke-linejoin="round"/>
<path d="M18.0664 39.3831C18.0664 39.3831 24.175 45.3428 30.7523 45.3428C37.3285 45.3428 44.3743 39.3841 44.3743 39.3841" stroke="black" stroke-width="5" stroke-linecap="round" stroke-linejoin="round"/>
</g>
<defs>
<clipPath id="clip0_711_46">
<rect width="60" height="58.9655" fill="white" transform="translate(0.5 0.5)"/>
</clipPath>
</defs>
</svg>
