<svg width="61" height="62" viewBox="0 0 61 62" fill="none" xmlns="http://www.w3.org/2000/svg">
<g clip-path="url(#clip0_711_36)">
<path fill-rule="evenodd" clip-rule="evenodd" d="M0.5 30.9655C0.513478 22.8763 3.6836 15.1235 9.31372 9.41087C14.9438 3.69822 22.5733 0.493156 30.5254 0.500011C38.4775 0.506866 46.1015 3.7251 51.7221 9.44744C57.3427 15.1698 60.4999 22.928 60.4999 31.0172C60.4999 39.1064 57.3427 46.8647 51.7221 52.587C46.1015 58.3094 38.4775 61.5276 30.5254 61.5345C22.5733 61.5413 14.9438 58.3363 9.31372 52.6236C3.6836 46.911 0.513478 39.1581 0.5 31.069V30.9655Z" fill="#A9ACC7"/>
<path fill-rule="evenodd" clip-rule="evenodd" d="M16.0171 25.7931C16.0292 24.563 16.4737 23.3884 17.2533 22.5258C18.0329 21.6632 19.0843 21.1829 20.1778 21.1897C21.2712 21.1966 22.3178 21.69 23.0888 22.5623C23.8599 23.4345 24.2927 24.6147 24.2927 25.8448C24.2927 27.075 23.8599 28.2551 23.0888 29.1274C22.3178 29.9996 21.2712 30.4931 20.1778 30.4999C19.0843 30.5068 18.0329 30.0264 17.2533 29.1639C16.4737 28.3013 16.0292 27.1266 16.0171 25.8966V25.7931Z" fill="black"/>
<path d="M16.5342 25.7984C16.5448 24.705 16.9337 23.6609 17.6159 22.8941C18.298 22.1274 19.218 21.7004 20.1748 21.7065C21.1315 21.7126 22.0473 22.1512 22.722 22.9266C23.3966 23.7019 23.7753 24.7509 23.7753 25.8444C23.7753 26.9379 23.3966 27.9869 22.722 28.7622C22.0473 29.5376 21.1315 29.9762 20.1748 29.9823C19.218 29.9883 18.298 29.5614 17.6159 28.7946C16.9337 28.0279 16.5448 26.9838 16.5342 25.8904V25.7984Z" stroke="black" stroke-width="0.881918" stroke-linecap="round" stroke-linejoin="round"/>
<path fill-rule="evenodd" clip-rule="evenodd" d="M40.8447 25.7931C40.8569 24.563 41.3013 23.3884 42.0809 22.5258C42.8605 21.6632 43.9119 21.1829 45.0054 21.1897C46.0988 21.1966 47.1454 21.69 47.9165 22.5623C48.6875 23.4345 49.1203 24.6147 49.1203 25.8448C49.1203 27.075 48.6875 28.2551 47.9165 29.1274C47.1454 29.9996 46.0988 30.4931 45.0054 30.4999C43.9119 30.5068 42.8605 30.0264 42.0809 29.1639C41.3013 28.3013 40.8569 27.1266 40.8447 25.8966V25.7931Z" fill="black"/>
<path d="M41.3618 25.7984C41.3724 24.705 41.7613 23.6609 42.4435 22.8941C43.1257 22.1274 44.0456 21.7004 45.0024 21.7065C45.9592 21.7126 46.8749 22.1512 47.5496 22.9266C48.2243 23.7019 48.603 24.7509 48.603 25.8444C48.603 26.9379 48.2243 27.9869 47.5496 28.7622C46.8749 29.5376 45.9592 29.9762 45.0024 29.9823C44.0456 29.9883 43.1257 29.5614 42.4435 28.7946C41.7613 28.0279 41.3724 26.9838 41.3618 25.8904V25.7984Z" stroke="black" stroke-width="0.881918" stroke-linecap="round" stroke-linejoin="round"/>
<path d="M43.8778 43.5676C43.8778 43.5676 37.7681 39.3841 31.1909 39.3841C24.6146 39.3841 17.5698 43.5676 17.5698 43.5676" stroke="black" stroke-width="5" stroke-linecap="round" stroke-linejoin="round"/>
</g>
<defs>
<clipPath id="clip0_711_36">
<rect width="60" height="61.0345" fill="white" transform="translate(0.5 0.5)"/>
</clipPath>
</defs>
</svg>
