<svg width="60" height="62" viewBox="0 0 60 62" fill="none" xmlns="http://www.w3.org/2000/svg">
<g clip-path="url(#clip0_711_94)">
<path fill-rule="evenodd" clip-rule="evenodd" d="M0 30.8143C0.0110457 22.6342 3.17947 14.7933 8.80886 9.01513C14.4383 3.23694 22.0679 -0.00567318 30.0208 7.45121e-06C37.9737 0.00568808 45.599 3.2592 51.2205 9.04542C56.8421 14.8316 60 22.677 60 30.8571C60 39.0373 56.8421 46.8826 51.2205 52.6689C45.599 58.4551 37.9737 61.7086 30.0208 61.7143C22.0679 61.7199 14.4383 58.4773 8.80886 52.6991C3.17947 46.921 0.0110457 39.0801 0 30.9V30.8143Z" fill="#FF956A"/>
<path fill-rule="evenodd" clip-rule="evenodd" d="M15.4287 25.2428C15.439 23.9963 15.8977 22.805 16.7045 21.9295C17.5113 21.0541 18.6005 20.5658 19.7337 20.5715C20.867 20.5771 21.9521 21.0763 22.7516 21.9598C23.5511 22.8433 24 24.0391 24 25.2857C24 26.5323 23.5511 27.7281 22.7516 28.6116C21.9521 29.4951 20.867 29.9943 19.7337 29.9999C18.6005 30.0056 17.5113 29.5173 16.7045 28.6418C15.8977 27.7664 15.439 26.5751 15.4287 25.3286V25.2428Z" fill="#E2480A"/>
<path d="M15.8574 25.2464C15.8667 24.1131 16.2795 23.0301 17.0057 22.2342C17.7318 21.4384 18.712 20.9945 19.7319 20.9996C20.7519 21.0048 21.7284 21.4586 22.448 22.2617C23.1676 23.0649 23.5715 24.1521 23.5715 25.2853C23.5715 26.4186 23.1676 27.5058 22.448 28.3089C21.7284 29.1121 20.7519 29.5659 19.7319 29.571C18.712 29.5762 17.7318 29.1323 17.0057 28.3364C16.2795 27.5405 15.8667 26.4575 15.8574 25.3243V25.2464Z" stroke="#E2480A" stroke-width="0.904539" stroke-linecap="round" stroke-linejoin="round"/>
<path fill-rule="evenodd" clip-rule="evenodd" d="M40.2856 25.2428C40.2959 23.9963 40.7547 22.805 41.5614 21.9295C42.3682 21.0541 43.4574 20.5658 44.5907 20.5715C45.7239 20.5771 46.809 21.0763 47.6085 21.9598C48.408 22.8433 48.8569 24.0391 48.8569 25.2857C48.8569 26.5323 48.408 27.7281 47.6085 28.6116C46.809 29.4951 45.7239 29.9943 44.5907 29.9999C43.4574 30.0056 42.3682 29.5173 41.5614 28.6418C40.7547 27.7664 40.2959 26.5751 40.2856 25.3286V25.2428Z" fill="#E2480A"/>
<path d="M40.7144 25.2464C40.7236 24.1131 41.1365 23.0301 41.8626 22.2342C42.5887 21.4384 43.5689 20.9945 44.5889 20.9996C45.6088 21.0048 46.5854 21.4586 47.3049 22.2617C48.0245 23.0649 48.4285 24.1521 48.4285 25.2853C48.4285 26.4186 48.0245 27.5058 47.3049 28.3089C46.5854 29.1121 45.6088 29.5659 44.5889 29.571C43.5689 29.5762 42.5887 29.1323 41.8626 28.3364C41.1365 27.5405 40.7236 26.4575 40.7144 25.3243V25.2464Z" stroke="#E2480A" stroke-width="0.904539" stroke-linecap="round" stroke-linejoin="round"/>
<path d="M43.6775 43.4297C43.6775 43.4297 37.5515 39.2349 30.9567 39.2349C24.361 39.2349 17.2964 43.4297 17.2964 43.4297" stroke="#E2480A" stroke-width="5" stroke-linecap="round" stroke-linejoin="round"/>
</g>
<defs>
<clipPath id="clip0_711_94">
<rect width="60" height="61.7143" fill="white"/>
</clipPath>
</defs>
</svg>
